<svg id="Vrstva_2" data-name="Vrstva 2" xmlns="http://www.w3.org/2000/svg" viewBox="0 0 297.64 419.53"><path d="M146.53,44.1,19.3,371.85H41.53L120.6,168.28l52,0,79.34,203.59h22.38ZM128.64,147.46l17.89-46.06,18,46.06Z"/><polygon points="125.72 316.17 118.94 303.18 89.43 334.1 146.53 369.61 203.9 334.07 119.68 248.49 146.53 232.56 173.15 248.42 165.19 256.28 171.9 269.11 195.68 245.69 146.59 216.45 178.15 185.55 160.66 185.55 146.53 198.97 133.3 185.55 116.34 185.55 146.09 216.45 97.4 245.59 181.86 331.41 146.53 353.29 111.25 331.39 125.72 316.17"/></svg>